<svg width="690" height="388" viewBox="0 0 690 388" fill="none" xmlns="http://www.w3.org/2000/svg">
<path d="M231.201 346.244C227.922 346.244 224.957 345.436 222.326 343.819C219.689 342.208 217.603 340.025 216.057 337.292C214.516 334.559 213.749 331.472 213.749 328.042C213.749 324.561 214.516 321.439 216.057 318.675C217.598 315.917 219.674 313.729 222.29 312.112C224.902 310.491 227.847 309.688 231.125 309.688C233.812 309.688 236.211 310.223 238.323 311.289C240.439 312.36 242.167 313.85 243.51 315.765C244.854 317.68 245.647 319.908 245.895 322.444V333.407C245.597 335.948 244.788 338.186 243.47 340.121C242.157 342.061 240.449 343.567 238.363 344.633C236.272 345.709 233.888 346.244 231.201 346.244ZM232.019 341.243C235.701 341.243 238.631 340.025 240.823 337.59C243.01 335.15 244.101 331.942 244.101 327.966C244.101 325.329 243.601 323.02 242.611 321.024C241.616 319.039 240.197 317.483 238.358 316.366C236.514 315.245 234.378 314.689 231.943 314.689C229.503 314.689 227.326 315.26 225.417 316.402C223.497 317.544 221.982 319.11 220.866 321.1C219.744 323.091 219.189 325.379 219.189 327.961C219.189 330.548 219.749 332.831 220.866 334.822C221.987 336.812 223.518 338.378 225.452 339.52C227.387 340.662 229.589 341.243 232.019 341.243ZM243.808 345.497V336.095L244.859 327.441L243.808 319.009V310.43H249.102V345.492H243.808V345.497Z" fill="black"/>
<path d="M259.548 360.269V310.435H264.842V319.382L263.791 327.966L264.842 336.544V360.274H259.548V360.269ZM277.748 346.244C275.06 346.244 272.646 345.699 270.509 344.602C268.373 343.506 266.615 342.005 265.251 340.091C263.882 338.176 263.054 335.948 262.756 333.412V322.449C263.054 319.862 263.897 317.614 265.296 315.699C266.686 313.785 268.464 312.299 270.625 311.259C272.787 310.218 275.167 309.692 277.753 309.692C280.981 309.692 283.89 310.501 286.476 312.117C289.063 313.729 291.118 315.922 292.629 318.68C294.149 321.444 294.902 324.566 294.902 328.047C294.902 331.477 294.159 334.564 292.664 337.297C291.174 340.03 289.123 342.208 286.517 343.824C283.9 345.436 280.975 346.244 277.748 346.244ZM276.778 341.243C279.263 341.243 281.45 340.682 283.339 339.565C285.229 338.444 286.719 336.878 287.815 334.867C288.911 332.856 289.456 330.552 289.456 327.971C289.456 325.384 288.911 323.08 287.815 321.065C286.719 319.049 285.239 317.488 283.38 316.371C281.511 315.25 279.364 314.694 276.924 314.694C274.49 314.694 272.338 315.255 270.474 316.371C268.605 317.493 267.15 319.054 266.11 321.065C265.069 323.08 264.544 325.384 264.544 327.971C264.544 330.557 265.069 332.856 266.11 334.867C267.15 336.883 268.595 338.449 270.434 339.565C272.277 340.682 274.394 341.243 276.778 341.243Z" fill="black"/>
<path d="M303.11 360.269V310.435H308.404V319.382L307.353 327.966L308.404 336.544V360.274H303.11V360.269ZM321.31 346.244C318.622 346.244 316.208 345.699 314.071 344.602C311.935 343.506 310.177 342.005 308.813 340.091C307.444 338.176 306.616 335.948 306.318 333.412V322.449C306.616 319.862 307.459 317.614 308.858 315.699C310.248 313.785 312.026 312.299 314.187 311.259C316.349 310.218 318.729 309.692 321.315 309.692C324.543 309.692 327.452 310.501 330.038 312.117C332.625 313.729 334.68 315.922 336.191 318.68C337.711 321.444 338.464 324.566 338.464 328.047C338.464 331.477 337.721 334.564 336.226 337.297C334.736 340.03 332.685 342.208 330.079 343.824C327.457 345.436 324.537 346.244 321.31 346.244ZM320.34 341.243C322.825 341.243 325.012 340.682 326.901 339.565C328.791 338.449 330.281 336.878 331.377 334.867C332.473 332.856 333.019 330.552 333.019 327.971C333.019 325.384 332.473 323.08 331.377 321.065C330.281 319.049 328.801 317.488 326.942 316.371C325.073 315.25 322.926 314.694 320.486 314.694C318.052 314.694 315.9 315.255 314.036 316.371C312.167 317.493 310.712 319.054 309.672 321.065C308.631 323.08 308.106 325.384 308.106 327.971C308.106 330.557 308.631 332.856 309.672 334.867C310.712 336.883 312.157 338.449 313.996 339.565C315.839 340.682 317.951 341.243 320.34 341.243Z" fill="black"/>
<path d="M333.862 301.418V288.328H390.744V301.418H333.862ZM354.81 355.273V289.181H369.888V355.278H354.81V355.273Z" fill="#666666"/>
<path d="M391.411 355.273V288.328H406.388V355.278H391.411V355.273ZM402.877 301.221V288.328H439.1V301.221H402.877ZM402.877 327.395V314.785H436.256V327.395H402.877ZM402.877 355.273V342.38H439.665V355.273H402.877Z" fill="#666666"/>
<path d="M442.13 355.273V288.328H452.647L457.107 301.7V355.278H442.13V355.273ZM488.304 355.273L448.96 304.732L452.652 288.328L492.097 338.869L488.304 355.273ZM488.304 355.273L484.323 341.9V288.328H499.396V355.278H488.304V355.273Z" fill="#666666"/>
<path d="M504.518 355.273V288.327H519.495V355.278H504.518V355.273ZM514.752 355.273V342.188H531.249C535.296 342.188 538.816 341.364 541.822 339.717C544.817 338.075 547.146 335.716 548.787 332.654C550.429 329.588 551.257 325.94 551.257 321.702C551.257 317.523 550.414 313.906 548.742 310.84C547.065 307.778 544.726 305.439 541.726 303.822C538.72 302.216 535.23 301.407 531.249 301.407H514.282V288.317H531.441C536.503 288.317 541.16 289.126 545.428 290.737C549.692 292.344 553.419 294.653 556.612 297.659C559.804 300.665 562.284 304.186 564.057 308.233C565.825 312.279 566.709 316.796 566.709 321.792C566.709 326.658 565.825 331.129 564.057 335.206C562.284 339.288 559.824 342.829 556.657 345.825C553.495 348.831 549.783 351.155 545.519 352.792C541.251 354.439 536.619 355.263 531.623 355.263H514.752V355.273Z" fill="#666666"/>
<path d="M568.422 355.273V288.328H583.399V355.278H568.422V355.273ZM579.888 301.221V288.328H616.11V301.221H579.888ZM579.888 327.395V314.785H613.267V327.395H579.888ZM579.888 355.273V342.38H616.676V355.273H579.888Z" fill="#666666"/>
<path d="M619.141 355.272V288.327H634.118V355.278H619.141V355.272ZM630.607 327.774V316.584H644.736C647.64 316.584 649.918 315.841 651.56 314.356C653.202 312.87 654.02 310.865 654.02 308.334C654.02 305.929 653.217 303.938 651.605 302.362C649.994 300.786 647.731 299.988 644.827 299.988H630.602V288.322H646.534C651.02 288.322 654.939 289.166 658.288 290.838C661.632 292.51 664.244 294.839 666.108 297.805C667.966 300.781 668.906 304.161 668.906 307.95C668.906 311.996 667.956 315.487 666.062 318.428C664.168 321.368 661.511 323.657 658.101 325.304C654.687 326.945 650.671 327.774 646.059 327.774H630.607ZM655.545 355.272L634.684 326.445L648.438 322.651L673.275 355.272H655.545Z" fill="#666666"/>
<path d="M68.3635 347.679L133.449 314.497C136.338 313.027 138.167 310.067 138.197 306.828L138.727 250.695C138.788 244.021 131.625 239.762 125.791 243.01L60.6755 279.279C57.9428 280.8 56.2354 283.675 56.2102 286.802L55.7101 339.854C55.6495 346.381 62.5444 350.65 68.3635 347.679Z" fill="url(#paint0_linear_1299_3980)"/>
<path d="M287.168 154.498L287.209 154.478L33.8332 31.4594C26.1553 27.7309 17.2297 33.3236 17.2297 41.8566V98.4348C17.2297 102.815 19.7048 106.816 23.6196 108.776L60.8573 127.398C64.7721 129.359 67.2472 133.36 67.2472 137.74V244.304C67.2472 252.867 76.2333 258.46 83.9112 254.671L142.965 225.565C146.915 223.62 149.416 219.599 149.416 215.199V188.412C149.416 179.864 158.367 174.277 166.044 178.025L197.807 193.54C201.019 195.112 204.777 195.101 207.985 193.52L261.114 167.335L226.609 189.11C218.916 193.965 219.588 205.393 227.796 209.318L283.749 236.059C286.991 237.61 290.775 237.559 293.982 235.927L351.021 206.848C359.482 202.533 359.421 190.423 350.915 186.2L287.168 154.498Z" fill="url(#paint1_linear_1299_3980)"/>
<defs>
<linearGradient id="paint0_linear_1299_3980" x1="23.315" y1="221.351" x2="124.485" y2="322.504" gradientUnits="userSpaceOnUse">
<stop stop-color="#FFA758"/>
<stop offset="0.4862" stop-color="#FF0583"/>
<stop offset="1" stop-color="#EC003F"/>
</linearGradient>
<linearGradient id="paint1_linear_1299_3980" x1="-9.39341" y1="-1.30733" x2="285.869" y2="293.906" gradientUnits="userSpaceOnUse">
<stop stop-color="#FFA758"/>
<stop offset="0.4862" stop-color="#FF0583"/>
<stop offset="1" stop-color="#EC003F"/>
</linearGradient>
</defs>
</svg>
