<svg xmlns="http://www.w3.org/2000/svg" width="1200" height="630" viewBox="0 0 1200 630">
  <defs>
    <linearGradient id="bg" x1="0" y1="0" x2="1" y2="1">
      <stop offset="0%" stop-color="#0a1018"/>
      <stop offset="55%" stop-color="#0d1626"/>
      <stop offset="100%" stop-color="#080d14"/>
    </linearGradient>
    <linearGradient id="ae" x1="0" y1="0" x2="1" y2="1">
      <stop offset="0%" stop-color="#00e5ff"/>
      <stop offset="100%" stop-color="#818cf8"/>
    </linearGradient>
    <radialGradient id="glow" cx="85%" cy="10%" r="55%">
      <stop offset="0%" stop-color="#00e5ff" stop-opacity="0.22"/>
      <stop offset="100%" stop-color="#00e5ff" stop-opacity="0"/>
    </radialGradient>
    <pattern id="dots" width="28" height="28" patternUnits="userSpaceOnUse">
      <circle cx="2" cy="2" r="1.5" fill="#ffffff" fill-opacity="0.05"/>
    </pattern>
  </defs>
  <rect width="1200" height="630" fill="url(#bg)"/>
  <rect width="1200" height="630" fill="url(#dots)"/>
  <rect width="1200" height="630" fill="url(#glow)"/>
  <text x="80" y="300" font-family="'Space Grotesk',Archivo,Arial,sans-serif" font-weight="700" font-size="150" letter-spacing="-4" fill="url(#ae)">DÆV</text>
  <text x="84" y="372" font-family="'Space Grotesk',Archivo,Arial,sans-serif" font-weight="600" font-size="44" fill="#e2e8f0">David Orlando Miranda</text>
  <text x="84" y="430" font-family="'JetBrains Mono',monospace" font-weight="500" font-size="32" fill="#00e5ff">Full Stack Developer · React · Next.js · Node.js</text>
  <g transform="translate(84,486)">
    <rect width="280" height="44" rx="22" fill="#16a34a" fill-opacity="0.12" stroke="#22c55e" stroke-opacity="0.4"/>
    <circle cx="26" cy="22" r="6" fill="#22c55e"/>
    <text x="46" y="29" font-family="Arial,sans-serif" font-weight="500" font-size="20" fill="#22c55e">Available for work</text>
  </g>
  <text x="1120" y="566" text-anchor="end" font-family="'JetBrains Mono',monospace" font-size="24" fill="#64748b">daev.space</text>
  <path d="M1000 120 h-40 v40 M1120 120 h40 v40 M1000 510 h-40 v-40 M1120 510 h40 v-40" fill="none" stroke="#00e5ff" stroke-width="4" stroke-linecap="round" opacity="0.4"/>
  <text x="1060" y="345" text-anchor="middle" font-family="'Space Grotesk',Archivo,Arial,sans-serif" font-weight="700" font-size="280" letter-spacing="-8" fill="url(#ae)" opacity="0.1">Æ</text>
</svg>
